# xmcd
#
# Track frame offsets: 
#        150
#        18972
#        47259
#        73491
#        94324
#
# Disc length: 1513 seconds
#
# Revision: 0
# Processed by: cddbd v1.5.2PL0 Copyright (c) Steve Scherf et al.
# Submitted via: ExactAudioCopy v0.95b4
#
DISCID=3c05e705
DTITLE=Eric Johnson and Alien Love Child - 1994-11-02 - Antone's - Austi
DTITLE=n TX - Disc 2
DYEAR=1994
DGENRE=Rock
TTITLE0=Untitled
TTITLE1=Bold As Love
TTITLE2=Steppin' Out
TTITLE3=World Of Trouble
TTITLE4=Untitled
EXTD=
EXTT0=
EXTT1=
EXTT2=
EXTT3=
EXTT4=
PLAYORDER=
